The Struutz family return from holidays after the fall of the Berlin Wall to find their home being bulldozed to make way for a golf course. It gets worse when Udo inherits a nearly-bankrupt garden gnome factory and the corrupt mayor starts chasing Udo's wife. Salvation is sought through the dubious influence of the charismatic Charlie, whose half-baked philosophies ("Freedom's just another word for nothing left to lose") are based on tired old Western rock songs and a minimal grasp of Zen.


IMDB: http://www.imdb.com/title/tt0104349/
 
http://www.abload.de/img/coverl224.jpg
 
http://www.abload.de/img/poster1l2av.jpg


General
Complete name                    : Go.Trabi.Go.2.1992.DVDRip.XviD.AC3-SNS.avi
Format                           : AVI
Format/Info                      : Audio Video Interleave
File size                        : 1.46 GiB
Duration                         : 1h 38mn
Overall bit rate                 : 2 118 Kbps
Writing application              : VirtualDubMod 1.5.4.1 (build 2178/release)
Writing library                  : VirtualDubMod build 2178/release

Video
ID                               : 0
Format                           : MPEG-4 Visual
Format profile                   : Advanced Simple@L5
Format settings, BVOP            : Yes
Format settings, QPel            : No
Format settings, GMC             : No warppoints
Format settings, Matrix          : Custom
Codec ID                         : XVID
Codec ID/Hint                    : XviD
Duration                         : 1h 38mn
Bit rate                         : 1 919 Kbps
Width                            : 720 pixels
Height                           : 400 pixels
Display aspect ratio             : 16:9
Frame rate                       : 25.000 fps
Resolution                       : 8 bits
Colorimetry                      : 4:2:0
Scan type                        : Progressive
Bits/(Pixel*Frame)               : 0.266
Stream size                      : 1.32 GiB (91%)
Writing library                  : XviD 1.2.1 (UTC 2008-12-04)

Audio
ID                               : 1
Format                           : AC-3
Format/Info                      : Audio Coding 3
Codec ID                         : 2000
Duration                         : 1h 38mn
Bit rate mode                    : Constant
Bit rate                         : 192 Kbps
Channel(s)                       : 2 channels
Channel positions                : Front: L R
Sampling rate                    : 48.0 KHz
Stream size                      : 135 MiB (9%)
Alignment                        : Aligned on interleaves
Interleave, duration             : 96 ms (2.40 video frames)
Interleave, preload duration     : 96 ms
Language                         : German

Source: DVD5, PAL.
Source resolution: 720x576.
Source aspect ratio: 16:9, progressive.
